<?xml version="1.0" encoding="UTF-8"?>
<svg width="217px" height="48px" viewBox="0 0 217 48" version="1.1" xmlns="http://www.w3.org/2000/svg" xmlns:xlink="http://www.w3.org/1999/xlink">
    <title>A00F8AA6-5DE7-4B68-80C2-100E46C3AC3F</title>
    <g id="Onboarding-(Desktop)" stroke="none" stroke-width="1" fill="none" fill-rule="evenodd">
        <g id="Login" transform="translate(-31.000000, -16.000000)" fill-rule="nonzero">
            <g id="Header/desktop/onboarding" transform="translate(-0.500000, 0.000000)">
                <g id="Horizontal-Logo" transform="translate(32.000000, 16.000000)">
                    <polygon id="Path" fill="#00B8F1" points="59.2566372 7.38461538 65.9976406 7.38461538 72.6379198 24.2004287 79.3458496 7.39041844 86.0176991 7.39041844 86.0176991 31.3846154 81.8083303 31.3846154 81.8083303 11.4511088 81.7376731 11.4511088 74.1878695 31.3788123 71.0969902 31.3788123 63.5456833 11.4511088 63.475026 11.4511088 63.475026 31.3788123 59.2656572 31.3788123"></polygon>
                    <path d="M89.840708,14.7692308 L94.5150471,14.7692308 L99.2591072,25.8695628 L99.3303438,25.8695628 L103.574231,14.7692308 L108,14.7692308 L99.966927,34.2044437 C99.6944818,34.8925898 99.3571616,35.5563969 98.9590037,36.18792 C98.6142768,36.7272378 98.1774623,37.2093569 97.6661336,37.6148813 C97.1506136,38.0129274 96.5544927,38.3081071 95.9140143,38.4824737 C95.1242317,38.685924 94.3076107,38.782027 93.4889357,38.767866 C92.3893262,38.7692308 91.2942661,38.6349487 90.2317519,38.3683168 L90.7637535,34.7680935 C91.1053922,34.8830501 91.4541347,34.9783565 91.808053,35.0534857 C92.1740574,35.1317711 92.5482584,35.1710218 92.9235892,35.1704965 C93.3643162,35.1787556 93.8043672,35.1341614 94.2331317,35.0377891 C94.8959598,34.8877412 95.4522885,34.4655853 95.7488058,33.8876583 C95.9145195,33.5870452 96.0918534,33.2255483 96.2808074,32.8031677 L97.0947245,30.9038822 L89.840708,14.7692308 Z" id="Path" fill="#00B8F1"></path>
                    <polygon id="Path" fill="#00B8F1" points="108 7.38461538 125.488913 7.38461538 125.488913 11.2489361 112.699038 11.2489361 112.699038 17.1477208 124.816938 17.1477208 124.816938 21.0120415 112.699038 21.0120415 112.699038 27.5202947 126.159292 27.5202947 126.159292 31.3846154 108 31.3846154"></polygon>
                    <path d="M129.366015,18.6655418 L126.159292,18.6655418 L126.159292,15.2321987 L129.366015,15.2321987 L129.366015,12.9428231 C129.358502,11.9226987 129.434599,10.9037612 129.593481,9.89704587 C129.71701,9.06322786 130.009652,8.26618164 130.452028,7.55868424 C130.890067,6.89366823 131.50297,6.37353325 132.217668,6.06028862 C132.97404,5.7135445 133.956954,5.53969219 135.16641,5.53873168 C135.992529,5.53320975 136.817158,5.6123548 137.628319,5.77501714 L137.370338,9.20691942 C137.09294,9.14064423 136.822477,9.08493465 136.558949,9.03979068 C136.291664,8.99413962 136.021206,8.9714907 135.750333,8.97207472 C135.303414,8.95127054 134.858334,9.04373782 134.453497,9.24149778 C134.142888,9.40755892 133.880161,9.65611375 133.692039,9.96188029 C133.501319,10.2846699 133.379745,10.6463339 133.335582,11.0222833 C133.280409,11.4463137 133.253529,11.8737999 133.255137,12.3016827 L133.255137,15.2293172 L136.851604,15.2293172 L136.851604,18.6626603 L133.255137,18.6626603 L133.255137,31.3846154 L129.371563,31.3846154 L129.366015,18.6655418 Z" id="Path" fill="#00B8F1"></path>
                    <path d="M144.659049,18.6655418 L141.451327,18.6655418 L141.451327,15.2321987 L144.659049,15.2321987 L144.659049,12.9428231 C144.651537,11.9226987 144.727625,10.9037612 144.886488,9.89704587 C145.010002,9.06322786 145.302609,8.26618164 145.744932,7.55868424 C146.182567,6.89333468 146.795501,6.37311076 147.510357,6.06028862 C148.265714,5.7135445 149.248509,5.53969219 150.458743,5.53873168 C151.284763,5.53320975 152.109292,5.6123548 152.920354,5.77501714 L152.661018,9.20691942 C152.383653,9.14064423 152.113685,9.08493465 151.851113,9.03979068 C151.583395,8.9941387 151.312509,8.97149003 151.041209,8.97207472 C150.5948,8.95139 150.15025,9.04385715 149.745916,9.24149778 C149.435345,9.40755892 149.172649,9.65611375 148.98455,9.96188029 C148.793853,10.2846699 148.672294,10.6463339 148.628137,11.0222833 C148.57297,11.4463137 148.546094,11.8737999 148.547701,12.3016827 L148.547701,15.2293172 L152.143733,15.2293172 L152.143733,18.6626603 L148.547701,18.6626603 L148.547701,31.3846154 L144.664596,31.3846154 L144.659049,18.6655418 Z" id="Path" fill="#00B8F1"></path>
                    <path d="M156.458772,24.0783029 C156.606927,25.3314884 157.129735,26.3056366 158.027195,27.0007475 C158.939898,27.7016333 160.093564,28.071894 161.275958,28.0434138 C162.396184,28.0434138 163.336279,27.8289224 164.096242,27.3999397 C164.856085,26.9702623 165.5319,26.4232459 166.094743,25.7823175 L169.306733,28.0434138 C168.261118,29.2499276 167.088664,30.1083895 165.789372,30.6187995 C164.501864,31.1272516 163.117222,31.3876841 161.718826,31.3844144 C160.41856,31.3920941 159.127615,31.1796138 157.908884,30.7573251 C156.758044,30.3661198 155.703678,29.7627575 154.80881,28.9833029 C153.922172,28.2018644 153.215074,27.2608394 152.730369,26.2172582 C151.709346,23.9103584 151.709346,21.3208237 152.730369,19.0139238 C153.215074,17.9703427 153.922172,17.0293177 154.80881,16.2478791 C155.704094,15.4685726 156.758312,14.864788 157.908884,14.4723674 C159.127921,14.0512889 160.418724,13.8393366 161.718826,13.8467676 C162.890127,13.8333337 164.052263,14.0405524 165.135462,14.4559826 C166.149678,14.8487989 167.056155,15.4489729 167.787873,16.2121305 C168.558888,17.0381928 169.142929,18.0007928 169.504984,19.0422247 C169.937043,20.2954888 170.145523,21.6062929 170.122121,22.9224328 L170.122121,24.0708552 L156.458772,24.0783029 Z M165.64548,20.950304 C165.620965,19.7219438 165.210606,18.7537537 164.414403,18.0457337 C163.618201,17.3377136 162.509699,16.9837036 161.088898,16.9837036 C159.74484,16.9837036 158.678973,17.3431752 157.891297,18.0621184 C157.103621,18.7810617 156.623981,19.7437902 156.452376,20.950304 L165.64548,20.950304 Z" id="Shape" fill="#00B8F1"></path>
                    <path d="M182.502296,19.2698258 C182.049429,18.7911251 181.528198,18.3806193 180.955181,18.0513654 C180.452291,17.7617879 179.881505,17.6077134 179.299708,17.6044972 C177.921151,17.5757683 176.596274,18.1332634 175.660677,19.1357654 C175.227625,19.5983825 174.892914,20.1424144 174.676423,20.7355534 C174.231566,21.949585 174.231566,23.2796828 174.676423,24.4937144 C174.892882,25.0873123 175.227585,25.6318379 175.660677,26.0949919 C176.596844,27.0966924 177.921339,27.6540266 179.299708,27.6262601 C179.931995,27.6312728 180.557195,27.4942719 181.128254,27.2255683 C181.694671,26.9548333 182.188233,26.5551455 182.568515,26.0592425 L185.381315,29.053259 C184.948976,29.4789533 184.458012,29.8420253 183.922993,30.1317008 C183.390007,30.4253081 182.830798,30.6696377 182.25247,30.8615854 C181.725589,31.0384124 181.185016,31.1724204 180.636127,31.2622772 C180.194449,31.3366339 179.747675,31.3774674 179.299708,31.3844212 C178.075759,31.3919688 176.860597,31.1794874 175.713351,30.7573162 C173.523912,29.9781535 171.759955,28.3336939 170.84325,26.2171359 C169.884108,23.909794 169.884108,21.3209633 170.84325,19.0136214 C171.300059,17.9703178 171.965589,17.0293721 172.799718,16.2475077 C173.642464,15.4681817 174.634816,14.864382 175.717866,14.4719516 C176.865399,14.0509897 178.080428,13.8390363 179.304223,13.8463362 C180.416673,13.8524408 181.518713,14.0588811 182.556475,14.4555664 C183.65102,14.8679857 184.631031,15.5316513 185.415929,16.391995 L182.502296,19.2698258 Z" id="Path" fill="#00B8F1"></path>
                    <path d="M187.327434,18.8329985 L187.327434,15.5500984 L190.563113,15.5500984 L190.563113,11.0769231 L194.481755,11.0769231 L194.481755,15.5500984 L198.79646,15.5500984 L198.79646,18.8329985 L194.481755,18.8329985 L194.481755,25.5916674 C194.481755,26.363142 194.628704,26.974352 194.922602,27.4252973 C195.2165,27.8762426 195.799632,28.1017153 196.671996,28.1017153 C197.0563,28.0985228 197.439499,28.0607098 197.8168,27.9887493 C198.167026,27.9383349 198.501578,27.8122519 198.79646,27.6195436 L198.79646,30.8693805 C198.314163,31.0804377 197.801376,31.2161583 197.276587,31.2716495 C196.750905,31.3414205 196.221346,31.3791477 195.690936,31.3846154 C194.645032,31.3846154 193.789462,31.2716495 193.124225,31.0457176 C192.512532,30.8564542 191.968317,30.4994765 191.555369,30.0166255 C191.154321,29.5145793 190.88471,28.9232358 190.770241,28.2945839 C190.619531,27.5094803 190.548274,26.7116014 190.557515,25.912656 L190.557515,18.8329985 L187.327434,18.8329985 Z" id="Path" fill="#00B8F1"></path>
                    <polygon id="Path" fill="#00B8F1" points="202.619469 29.5384615 204.530973 29.5384615 204.530973 29.8368909 203.836966 29.8368909 203.836966 31.3846154 203.313476 31.3846154 203.313476 29.8368909 202.619469 29.8368909"></polygon>
                    <polygon id="Path" fill="#00B8F1" points="204.533267 29.5384615 204.931162 29.5384615 205.488446 30.9109948 206.045729 29.5384615 206.442478 29.5384615 206.442478 31.3846154 206.090449 31.3846154 206.090449 30.1836488 205.62146 31.3846154 205.355432 31.3846154 204.883002 30.1836488 204.883002 31.3846154 204.530973 31.3846154"></polygon>
                    <g id="Layer_1-2">
                        <path d="M43.9490128,25.9663023 C41.7369239,31.8600884 36.1503828,35.9778267 29.6457634,36.5089686 C29.2003643,36.5488598 28.7549652,36.565956 28.3244128,36.57023 C27.9067774,36.5786711 27.4889725,36.5653544 27.0728413,36.5303389 C19.8067749,36.044544 13.7051367,31.0994625 11.9901435,24.3065446 C11.9366956,24.0985407 11.8877017,23.8919614 11.8416771,23.6868068 C11.8401685,23.6812 11.8401685,23.6753174 11.8416771,23.6697106 C11.597792,22.5042485 11.4902304,21.3163056 11.5209898,20.1279446 C11.7022585,17.4871438 12.8227798,14.9860986 14.6952006,13.0429879 C14.7946731,12.9332872 14.9060229,12.8264358 15.0129186,12.7238585 L15.0426119,12.6953648 C15.7600745,12.0102162 16.6166315,11.4738858 17.5591168,11.1196636 C16.9944251,11.8702895 16.5412239,12.6926053 16.2125268,13.5629978 C16.1575943,13.7054662 16.1056311,13.8579075 16.0566372,14.0060747 C15.1660263,16.768864 15.5799874,19.7672884 17.1895748,22.2122278 C18.7991622,24.6571671 21.4431456,26.303715 24.4256861,26.7185357 C24.6172077,26.7470294 24.8161526,26.7683997 25.0121282,26.7826465 C26.1138618,26.8778637 27.2243929,26.8013666 28.3006581,26.5561217 L28.349652,26.5561217 C32.5084324,25.5858227 35.6140954,22.2566802 36.1604674,18.1832501 L36.1604674,18.1419342 C36.3134461,16.9585967 36.2404964,15.7584151 35.9451912,14.6001682 L35.9451912,14.6001682 C35.6211857,13.1465165 35.0071264,11.7667576 34.1368709,10.5369676 C34.0849076,10.462884 34.0373984,10.3944991 33.9780119,10.3218402 C33.5870079,9.79031927 33.1488883,9.29220261 32.6685385,8.83304477 C30.7832347,7.01199121 28.5278455,5.58239705 26.0424847,4.63307445 C27.6988615,4.42394275 29.3786574,4.45612378 31.0250159,4.72852832 L31.0250159,4.72852832 C32.8452663,5.02699585 34.6012483,5.61339044 36.2213386,6.46379421 C36.4574001,6.58489241 36.683069,6.71168934 36.9117072,6.84703438 C40.7028651,9.05738426 43.4197838,12.6263962 44.4612218,16.7642642 C44.5928619,17.2951966 44.6972833,17.826604 44.7744858,18.3584863 C45.1476725,20.9211158 44.8643382,23.5324125 43.9490128,25.9663023 Z" id="Path" fill="#FDD142"></path>
                        <path d="M29.7942297,21.4927925 C29.7158758,21.6077365 29.6311272,21.7185475 29.5403523,21.824744 C28.3179584,23.3357221 26.4295563,24.2112208 24.4362825,24.1910867 C22.4430087,24.1709525 20.5742304,23.2575022 19.385253,21.7221667 C19.2900878,21.6016859 19.2013876,21.4766261 19.1194982,21.3474746 C18.248351,20.034296 17.9328843,18.4513749 18.237608,16.9224042 C18.2952268,16.6324899 18.3741102,16.3468424 18.4736696,16.0675934 C19.1457548,14.2050933 20.7118169,12.7674151 22.6805771,12.205563 C24.6493374,11.6437108 26.7796019,12.0265176 28.4030999,13.2338956 C28.4621097,13.2728741 28.5186285,13.3152159 28.5723516,13.3606926 C31.1076507,15.3682188 31.6367524,18.896393 29.7942297,21.508464 L29.7942297,21.4927925 Z" id="Path" fill="#FDD142"></path>
                        <path d="M45.788511,25.8808212 C43.9997058,35.8645628 35.3743561,43.4077709 24.8493967,44.1929015 C14.3244373,44.978032 4.58789601,38.8045663 1.21272595,29.2060417 C-2.1624441,19.6075172 1.68576046,9.03535451 10.5547235,3.54079545 C19.4236865,-1.95376361 31.0483142,-0.967433029 38.77496,5.93523621 C32.1810622,1.44547487 23.3243107,1.54084576 16.8370659,6.17146691 C10.3498211,10.8020881 7.70774602,18.9146254 10.2927292,26.2659659 C12.8777124,33.6173065 20.101744,38.5352302 28.1864277,38.4475079 C36.2711113,38.3597855 43.3774123,33.2863714 45.788511,25.8808212 L45.788511,25.8808212 Z" id="Path" fill="#00B8F1"></path>
                    </g>
                </g>
            </g>
        </g>
    </g>
</svg>